<svg preserveAspectRatio="none" width="100%" height="100%" overflow="visible" style="display: block;" viewBox="0 0 21.466 21.466" fill="none" xmlns="http://www.w3.org/2000/svg">
<g id="flat-color-icons:google">
<path id="Vector" d="M19.5046 8.98167H18.7842V8.94455H10.7345V12.5222H15.7892C15.0518 14.6049 13.0702 16.0999 10.7345 16.0999C7.77081 16.0999 5.36796 13.697 5.36796 10.7334C5.36796 7.76973 7.77081 5.36689 10.7345 5.36689C12.1025 5.36689 13.347 5.88296 14.2947 6.72595L16.8245 4.1961C15.2271 2.70734 13.0903 1.78923 10.7345 1.78923C5.79504 1.78923 1.7903 5.79397 1.7903 10.7334C1.7903 15.6728 5.79504 19.6775 10.7345 19.6775C15.6739 19.6775 19.6786 15.6728 19.6786 10.7334C19.6786 10.1337 19.6169 9.54828 19.5046 8.98167Z" fill="var(--fill-0, #FFC107)"/>
<path id="Vector_2" d="M2.82062 6.57032L5.75922 8.72542C6.55436 6.75681 8.48004 5.36689 10.7335 5.36689C12.1015 5.36689 13.3461 5.88296 14.2937 6.72595L16.8236 4.1961C15.2262 2.70734 13.0894 1.78923 10.7335 1.78923C7.29806 1.78923 4.31877 3.72877 2.82062 6.57032Z" fill="var(--fill-0, #FF3D00)"/>
<path id="Vector_3" d="M10.7339 19.6775C13.0442 19.6775 15.1434 18.7934 16.7305 17.3556L13.9623 15.0131C13.0341 15.719 11.9 16.1008 10.7339 16.0998C8.40752 16.0998 6.4322 14.6164 5.68805 12.5463L2.77136 14.7935C4.25162 17.6901 7.25775 19.6775 10.7339 19.6775Z" fill="var(--fill-0, #4CAF50)"/>
<path id="Vector_4" d="M19.5032 8.9811H18.7828V8.94398H10.7331V12.5216H15.7878C15.4351 13.5128 14.7997 14.379 13.9601 15.013L13.9614 15.0121L16.7297 17.3546C16.5338 17.5326 19.6772 15.2049 19.6772 10.7328C19.6772 10.1331 19.6155 9.54771 19.5032 8.9811Z" fill="var(--fill-0, #1976D2)"/>
</g>
</svg>
